<?xml version="1.0" encoding="UTF-8"?><svg id="_레이어_2" xmlns="http://www.w3.org/2000/svg" xmlns:xlink="http://www.w3.org/1999/xlink" viewBox="0 0 130 78"><defs><style>.cls-1,.cls-2,.cls-3,.cls-4,.cls-5,.cls-6,.cls-7,.cls-8{stroke-linecap:round;stroke-linejoin:round;}.cls-1,.cls-3,.cls-9,.cls-7{fill:none;}.cls-1,.cls-4,.cls-8{stroke:#222020;stroke-width:1.197px;}.cls-2,.cls-3,.cls-5,.cls-6,.cls-7{stroke-width:1.109px;}.cls-2,.cls-5,.cls-6,.cls-7{stroke:#1c1819;}.cls-2,.cls-8{fill:#fff;}.cls-3{stroke:#e50012;}.cls-4{fill:#a68769;}.cls-10{clip-path:url(#clippath-2);}.cls-9,.cls-11,.cls-12,.cls-13,.cls-14{stroke-width:0px;}.cls-11{fill:#222020;}.cls-12{fill:url(#radial-gradient-2);}.cls-5,.cls-14{fill:#1c1819;}.cls-6{fill:#f9d3c4;}.cls-15{clip-path:url(#clippath);}.cls-13{fill:url(#radial-gradient);}</style><clipPath id="clippath"><polygon class="cls-9" points="0 0 0 67.38 89.26 67.38 89.26 78 130 78 130 67.38 130 66.69 130 0 0 0"/></clipPath><radialGradient id="radial-gradient" cx="-43335.635" cy="-7570.168" fx="-43335.635" fy="-7570.168" r=".913" gradientTransform="translate(210534.797 -63937.219) rotate(-26.827) scale(5.002) skewX(-.093)" gradientUnits="userSpaceOnUse"><stop offset="0" stop-color="#ecafcd"/><stop offset=".675" stop-color="#f4c6c7"/><stop offset="1" stop-color="#f9d3c4"/></radialGradient><clipPath id="clippath-2"><path class="cls-9" d="M61.232,24.997c4.919,11.141,3.176,24.253-11.227,29.144-11.493,3.94-24.14-.031-29.077-11.176-4.974-11.196.065-24.221,11.176-29.15,11.12-4.99,24.175.04,29.128,11.181Z"/></clipPath><radialGradient id="radial-gradient-2" cx="-43331.993" cy="-7570.239" fx="-43331.993" fy="-7570.239" r=".913" xlink:href="#radial-gradient"/></defs><g id="_레이어_1-2"><g class="cls-15"><path class="cls-5" d="M53.135,44.232l5.015,1.335c3.565,4.347,16.741,4.141,10.654,27.406,0,0-17.896,12.574-39.536-3.388,0,0,18.092-4.969,7.496-20.103l16.37-5.25Z"/><path class="cls-6" d="M61.232,24.997c4.919,11.141,3.176,24.253-11.227,29.144-11.493,3.94-24.14-.031-29.077-11.176-4.974-11.196.065-24.221,11.176-29.15,11.12-4.99,24.175.04,29.128,11.181Z"/><path class="cls-13" d="M46.925,30.099c.886,2.337-.218,5.011-2.553,5.957-2.355.934-4.963-.202-5.923-2.572-.953-2.297.117-4.979,2.513-5.914,2.336-.946,5.016.174,5.962,2.53Z"/><g class="cls-10"><path class="cls-12" d="M63.024,21.561c.885,2.336-.219,5.01-2.554,5.955-2.354.935-4.961-.201-5.921-2.573-.952-2.295.117-4.979,2.512-5.913,2.336-.946,5.016.176,5.964,2.53Z"/><path class="cls-2" d="M43.639,30.438s6.687-2.55,3.632-5.609c0,0-1.849-2.33-6.399-.047,0,0-5.012,2.573-4.095,5.896,0,0,.794,3.479,6.862-.241Z"/><path class="cls-14" d="M39.317,29.83c.123.386.532.598.917.475.384-.123.596-.534.474-.919-.122-.384-.532-.597-.916-.475-.384.123-.597.535-.474.919Z"/><path class="cls-2" d="M58.657,22.635s6.889-1.927,4.126-5.254c0,0-1.63-2.49-6.369-.63,0,0-5.225,2.103-4.614,5.496,0,0-.094,4.5,6.857.388Z"/><path class="cls-14" d="M54.274,22.014c.085.393.475.642.869.556.393-.088.643-.478.555-.872-.086-.394-.475-.644-.868-.557-.394.087-.643.477-.555.873Z"/></g><path class="cls-5" d="M12.209,47.095c4.584,7.5,12.207,5.685,15.456,4.486-.037-.1-.13-.223-.164-.308v-.034c-2.195-4.196,1.097-7.568-.113-12.594h0c-.032-.109-.035-.242-.084-.316-.04-.033-.026-.043-.026-.043-.031-.07-.062-.222-.119-.328h0c-.043-.082-.034-.201-.078-.292-.032-.034-.017-.039-.017-.039-.034-.126-.111-.21-.131-.307.008-.043-.003-.048-.003-.048-.066-.12-.087-.216-.129-.291-.006-.032-.01-.049-.033-.085-.057-.037-.086-.174-.121-.257-.021-.023-.026-.046-.028-.054-.047-.14-.113-.218-.131-.307q-.036-.017-.065-.07c-.009-.124-.057-.188-.124-.274-.038-.059-.071-.102-.071-.102-.024-.112-.098-.223-.152-.286-.022-.062-.041-.074-.072-.101-.044-.091-.063-.179-.132-.273-.011-.014-.066-.077-.09-.115-.046-.091-.105-.178-.12-.292-.047-.024-.074-.068-.099-.112-.078-.051-.153-.169-.219-.247.007-.045-.034-.086-.072-.144-.058-.071-.114-.143-.193-.244-.079-.057-.038-.099-.114-.142-.028-.061-.122-.183-.159-.284-.064-.062-.099-.071-.135-.121-.053-.057-.163-.183-.184-.28-.089-.031-.121-.109-.161-.133-.107-.111-.165-.233-.248-.307-.037-.058-.066-.078-.111-.135-.094-.131-.238-.259-.368-.399l21.806-11.181-.107-3.668,3.102,2.207,4.719-2.296c4.228,2.731,8.968,8.662,10.188,14.369-.4-2.28-1.125-4.457-2.072-6.655-.076-.117-.146-.294-.224-.428-2.03-15.856-12.048-18.121-12.048-18.121-12.346-10.919-23.802-1.154-23.802-1.154-14.919,3.831-14.73,15.43-14.73,15.43-12.677,15.916,1.781,26.371,1.781,26.371Z"/><path class="cls-14" d="M49.955,36.971c.452,1.974.252,4.012,1.936,5.463,1.304,1.124,3.3,2.017,4.9.767,1.197-.935.702-2.439.245-3.613-.763-1.962-.615-4.239.212-6.137,2.38-5.461-2.303-3.846-2.303-3.846-1.807.222-3.153,1.325-4.177,2.766,0,0-1.352,2.246-.813,4.6Z"/><path class="cls-6" d="M60.505,42.182s-.133-7.576,1.459-11.298c0,0,2.521-6.91,5.305-6.247.997.237,1.774,1.31,2.083,2.213.984,2.877-.701,4.878-1.979,7.225-.856,1.572-1.405,3.906-.899,5.715,0,0,5.438-.133,4.908,6.513,0,0,2.255,11.165-4.51,12.627,0,0-3.847,1.861-6.367.133,0,0-2.919-1.064-1.194-4.652,0,0-3.117-.333-2.918-3.257,0,0-.199-2.259,2.255-4.186,0,0-1.923.399-1.923-1.329,0,0,.464-2.459,3.78-3.456Z"/><path class="cls-7" d="M59.311,54.411s1.128-2.061,4.378-2.659"/><path class="cls-7" d="M58.648,46.967s1.26-1.197,2.454-.864"/><path class="cls-3" d="M79.474,10.592s-7.075,6.38-10.082,10.456"/><path class="cls-3" d="M80.358,16.795s-7.605,5.317-8.843,6.912"/><path class="cls-3" d="M80.712,22.998s-6.544,2.127-8.313,3.722"/><path class="cls-3" d="M71.913,29.023s6.897-.664,9.02-.399"/><line class="cls-3" x1="73.505" y1="33.676" x2="80.8" y2="33.676"/><line class="cls-3" x1="72.709" y1="36.201" x2="80.535" y2="39.923"/><line class="cls-3" x1="73.24" y1="41.784" x2="80.004" y2="45.638"/><path class="cls-7" d="M60.505,42.182s2.786-1.284,4.024-.399"/><path class="cls-6" d="M30.924,44.176s-.796-9.57-4.377-10.101c0,0-1.99-.665-3.051,1.994,0,0-2.255,3.456,2.52,9.969,0,0,.796,2.792.531,5.051,0,0-.398,6.247,3.184,9.437,0,0,4.466,5.272,9.683,3.057,0,0,4.908-2.526.796-7.178,0,0,2.786-5.45-2.653-6.114,0,0,3.847-2.526,1.061-5.583,0,0-2.255-2.924-7.694-.531Z"/><line class="cls-3" x1="13.09" y1="15.502" x2="25.22" y2="28.093"/><line class="cls-3" x1="12.486" y1="22.643" x2="22.036" y2="28.492"/><line class="cls-3" x1="11.159" y1="29.023" x2="21.373" y2="31.682"/><line class="cls-3" x1="11.557" y1="37.663" x2="18.72" y2="36.467"/><line class="cls-3" x1="9.45" y1="48.53" x2="19.118" y2="40.853"/><line class="cls-3" x1="12.22" y1="52.683" x2="20.71" y2="44.442"/><path class="cls-4" d="M116.008,67.374s-2.096,2.745-1.45,4.522c0,0-.161,2.423,1.129,2.745,0,0,1.611,1.454,1.933-3.875,0,0,.161,4.683,1.773,4.36,0,0,1.934-.162.806-4.522,0,0,1.129,5.006,2.901,3.876,0,0,2.418,0,.484-6.137,0,0,3.384-.969,2.417-4.199,0,0-.161-6.46-6.124-9.206,0,0-.323-3.392-3.384-4.522,0,0-9.672-2.585-16.118,1.291,0,0-.806,7.591-2.579,9.69,0,0-2.74,2.1-3.224,5.168,0,0-1.612,4.2,6.447,3.231,0,0-1.611,5.976.323,6.298,0,0,1.773.323,1.934-3.554,0,0,.161,3.877,1.45,3.391,0,0,1.774-.322,1.291-3.714,0,0,1.772,3.554,3.707,1.938,0,0,1.934-1.321-1.289-6.81"/><path class="cls-4" d="M89.414,37.01s-.967,9.045,1.933,10.014c0,0,3.224,1.291,5.159-2.908,1.289-2.584,3.482-9.471,3.546-9.69,0,0-10.317-3.554-10.638,2.583Z"/><path class="cls-4" d="M111.174,40.241c-.181-3.435,1.103-6.361,2.268-8.275-1.279-.198-2.759-.203-4.364.199,0,0-.942-.187-2.352-.121,3.092,7.958-.388,13.365-.388,13.365-.934,2.693-5.752,2.668-8.339,2.452.788,1.663,1.835,3.44,3.021,4.331,0,0,.645,8.398,7.414,8.075,0,0,6.125-.646,7.091-7.751,0,0,1.621-1.101,2.818-3.417-7.922.661-7.169-8.857-7.169-8.857Z"/><path class="cls-4" d="M124.551,32.812s-2.579-.646-6.447.969c1.29,2.26.967,6.137.967,6.137,0,0,3.224,7.429,6.77,5.168,0,0,2.901-.969,2.901-5.491,0,0,2.256-8.398-4.191-6.783Z"/><path class="cls-8" d="M106.337,45.409s3.481-5.406.388-13.365c-1.788.084-4.33.576-6.673,2.382-.065.219-2.257,7.106-3.546,9.69,0,0,.567,1.791,1.492,3.744,4.378,1.275,7.405.241,8.339-2.452Z"/><path class="cls-8" d="M118.104,33.781s-1.836-1.378-4.662-1.814c-1.166,1.913-2.449,4.84-2.268,8.275,0,0-.753,9.518,7.169,8.857,1.064-2.06,1.79-5.077.728-9.181,0,0,.323-3.877-.967-6.137Z"/><path class="cls-11" d="M110.974,51.362c0,1.472-.976,2.666-2.177,2.666s-2.175-1.195-2.175-2.666.975-2.664,2.175-2.664,2.177,1.193,2.177,2.664Z"/><path class="cls-1" d="M104.565,65.113s2.74.617,3.868,2.234"/><path class="cls-1" d="M116.008,67.374s1.612-1.939,3.385-2.583"/><path class="cls-1" d="M110.221,56.032c0,1.113-.692,2.018-1.546,2.018s-1.546-.905-1.546-2.018"/><path class="cls-11" d="M116.106,40.728c.074.473-.248.915-.722.989-.47.071-.913-.253-.985-.728-.072-.472.25-.913.722-.987.474-.074.915.252.985.726Z"/><path class="cls-11" d="M104.266,41.007c.074.473-.248.915-.723.989-.47.072-.913-.252-.985-.727-.072-.472.25-.913.722-.987.474-.074.915.252.986.726Z"/></g></g></svg>